<?xml version="1.0" encoding="utf-8"?>
<!-- Generator: Adobe Illustrator 22.0.1, SVG Export Plug-In . SVG Version: 6.00 Build 0)  -->
<svg version="1.1" id="Layer_1" xmlns="http://www.w3.org/2000/svg" xmlns:xlink="http://www.w3.org/1999/xlink" x="0px" y="0px"
	 viewBox="0 0 100 84.3" style="enable-background:new 0 0 100 84.3;" xml:space="preserve">
<style type="text/css">
	.st0{fill:#EB1851;}
</style>
<path class="st0" d="M100,25.7C100,11.5,88.1,0,73.6,0C63.2,0,54.3,5.8,50,14.1C45.6,5.8,36.7,0,26.4,0C11.8,0,0,11.5,0,25.7
	c0,0.1,0,0.2,0,0.2c-0.1,2.8,0,29.9,50,58.3l0,0c0,0,0,0,0,0c0,0,0,0,0,0l0,0C102.8,54.3,100,25.7,100,25.7z"/>
</svg>
